<svg xmlns="http://www.w3.org/2000/svg" fill="none" fill-rule="evenodd" viewBox="19.37 14.1 2795.83 376.52">         <path d="m229.4,387.4c2.5-1,5-2.2,7.5-3.3c0.9-0.4,1.8-0.9,2.7-1.3c1.4-0.7,2.7-1.3,4.1-2c1.4-0.8,2.9-1.5,4.3-2.3           c0.7-0.4,1.4-0.8,2-1.1c24.6-13.9,46.2-33,63.1-55.7c19.9-26.9,33.1-59.1,36.9-92.4c3.7-32.6-0.8-67.1-16-96.3           c-10.8-20.8-27.6-39.5-48.5-50.4c-11.6-6.1-24.7-10-38-11.3C223.4,68.4,199,74.8,181,94c-8,8.5-14.1,19.6-17.3,33l-0.1,0.4           l-0.3,1.3l-0.3,1.3l-0.3,1.3l-0.2,1.3l-0.2,1.3c-0.1,0.6-0.2,1.3-0.3,1.9c-0.2,1.2-0.3,2.3-0.4,3.5c-0.1,1.2-0.1,2.4-0.2,3.6           c0,0.5,0,1,0,1.3c1.3-32.1,27.8-57.7,60.2-57.7c33.3,0,60.3,27,60.3,60.3c0,9-2,17.5-5.5,25.2l-0.5,1.3           c-12,32.9-41.1,65.1-76.5,78.7c-11.9,4.5-24.5,7.1-37.4,7.2c-2.3,0-4.6-0.1-6.9-0.2c-1-0.1-2-0.1-3.1-0.2           c-1.7-0.1-3.5-0.3-5.2-0.5c-1.3-0.2-2.6-0.4-4-0.6c-1.5-0.2-3-0.5-4.5-0.8c-0.9-0.1-1.8-0.3-2.6-0.5c-2.4-0.5-4.7-1-7.1-1.7           l-1-0.3c-33.1-9-64.4-30.3-86.2-57.3c-0.5-0.6-0.9-1.1-1.3-1.7c-0.7-0.9-1.4-1.8-2.1-2.7c-0.7-0.9-1.3-1.8-2-2.7           c-0.5-0.7-1-1.4-1.5-2.1c-0.6-0.9-1.2-1.7-1.8-2.6c-0.6-1-1.3-2-1.9-2.9c-0.4-0.6-0.8-1.3-1.2-1.9c-0.9-1.4-1.7-2.9-2.6-4.3           l-0.6-1l-0.1-0.1c-0.4-0.7-0.7-1.3-1.1-2c-0.7-1.3-1.4-2.6-2-3.9c-0.5-1-1-2.1-1.5-3.1l-0.4-0.8c-0.6-1.4-1.2-2.9-1.8-4.4           l-0.1-0.3c0.8,112.7,132.1,218.8,202.5,230h0c2.2-0.9,4.5-1.7,6.7-2.6L229.4,387.4z" fill="#009659" style="--darkreader-inline-fill: #63ffc0;" data-darkreader-inline-fill=""/>         <path d="m21.5,165l0.4,0.8c0.5,1.1,1,2.1,1.5,3.1c0.7,1.3,1.3,2.6,2.1,3.9c0.4,0.7,0.7,1.3,1.1,2l0.1,0.1l0.6,1           c0.8,1.5,1.7,2.9,2.6,4.3c0.4,0.6,0.8,1.2,1.2,1.9c0.6,1,1.2,2,1.9,2.9c0.6,0.9,1.2,1.7,1.8,2.6c0.5,0.7,1,1.4,1.5,2.2           c0.6,0.9,1.3,1.8,2,2.7c0.7,0.9,1.4,1.8,2.1,2.7c0.4,0.6,0.9,1.2,1.4,1.7c21.8,26.9,53.1,48.2,86.2,57.3l1,0.3           c2.4,0.6,4.7,1.2,7.1,1.7c0.9,0.2,1.8,0.3,2.6,0.5c1.5,0.3,3,0.5,4.5,0.8c1.3,0.2,2.6,0.4,4,0.5c1.7,0.2,3.5,0.4,5.2,0.6           c1,0.1,2,0.1,3.1,0.2c2.3,0.1,4.6,0.2,6.9,0.2c12.9-0.1,25.5-2.6,37.4-7.2c35.4-13.6,64.5-45.8,76.5-78.7l0.5-1.3           c-9.5,20.7-30.5,35.1-54.8,35.1c-22.2,0-41.6-12-52.1-29.9l-0.7-1.2c-4.8-8.6-7.5-18.6-7.5-29.1c0-0.7,0-1.4,0-2.1           c0-0.5,0-2.4,0-3.5c0-1.2,0.1-2.6,0.2-3.8c0-1.2,0.1-2.2,0.2-3.4c0.8-8.5,2.9-17.3,5.5-25.4c3.9-12.3,9.7-24,16.9-34.6           c7.1-10.6,15.7-20.1,25.3-28.5c4.6-4,8.9-7.3,12.6-9.9h0c-19.8-13.5-43.6-21.3-69.4-21.3c-20.5,0-39.2,4.2-55.7,11.9l-0.5,0.2           c-0.7,0.3-1.4,0.7-2.2,1c-2.7,1.4-5.4,2.8-8.1,4.4l-0.1,0c-1.3,0.8-2.6,1.6-3.9,2.4L82,34.2l-0.1,0.1           c-14.5,9.4-26.8,21.6-36.5,36.1v0c-4.4,6.4-8.2,13.3-11.5,20.5v0c-2.3,5.1-4.4,10.4-6.2,15.8l-0.1,0.3l-0.2,0.6l-0.3,0.8l-0.1,0.3           c-0.3,0.8-0.5,1.6-0.7,2.4l-0.4,1.4c-0.8,2.7-1.5,5.5-2.2,8.3c-0.3,1.3-0.6,2.7-0.9,4l-0.2,1.1c-0.3,1.2-0.5,2.4-0.7,3.7l-0.1,0.4           l-0.2,1.1c-1.5,9.1-2.2,18.5-2.2,28.2l0,1l0.1,0.3C20.2,162.1,20.8,163.6,21.5,165" fill="#00D163" style="--darkreader-inline-fill: #3aff97;" data-darkreader-inline-fill=""/>         <path d="m291.5,14.1c-25.7,0-49.6,7.9-69.4,21.3c-3.7,2.6-8,5.9-12.6,9.9c-9.6,8.4-18.1,17.9-25.3,28.5           c-7.2,10.7-13,22.4-16.9,34.6c-2.6,8.1-4.6,16.9-5.5,25.4c-0.1,1.2-0.2,2.2-0.2,3.4c0,1.2-0.1,2.6-0.2,3.8c0,1,0,3,0,3.5           c0,0.7,0,1.4,0,2.1c0,10.6,2.7,20.5,7.5,29.1l0.7,1.2c10.5,17.9,29.9,29.9,52.1,29.9c24.3,0,45.3-14.4,54.8-35.1           c3.5-7.7,5.5-16.2,5.5-25.1c0-33.3-27-60.3-60.3-60.3c-32.4,0-58.9,25.6-60.2,57.7c0-0.3,0-0.7,0.1-1.3c0.1-1.2,0.1-2.4,0.2-3.6           c0.1-1.2,0.2-2.3,0.4-3.5c0.1-0.6,0.2-1.3,0.3-1.9l0.2-1.3l0.2-1.3l0.3-1.3l0.3-1.3l0.3-1.3l0.1-0.4c3.2-13.4,9.3-24.4,17.3-33           c18-19.2,42.4-25.6,66.6-22.8c13.3,1.3,26.4,5.3,38,11.3c20.9,11,37.7,29.6,48.5,50.4c15.2,29.2,19.7,63.7,16,96.3           c-3.8,33.3-17,65.5-36.9,92.4c-16.9,22.7-38.5,41.8-63.1,55.7c-0.7,0.4-1.4,0.8-2,1.1c-1.5,0.8-2.9,1.6-4.3,2.3           c-1.3,0.7-2.7,1.4-4,2c-0.9,0.4-1.8,0.9-2.7,1.3c-2.5,1.1-5,2.3-7.5,3.3l-0.6,0.3c-2.2,0.9-4.5,1.8-6.7,2.6l0.7-0.1l0.5-0.1           l0.3-0.1l0.3-0.1l1-0.2l0.3,0l1.2-0.2l0.2-0.1l1.1-0.3l0.2,0l1.2-0.3l0.2-0.1l0.2-0.1l0.4-0.1l0.7-0.2l0.1,0l1.2-0.3l0.1,0l0.1,0           l0.1,0l1.1-0.3l0.1,0l0.2-0.1l1.2-0.3l0.1,0l1.3-0.4l0.3-0.1l0.6-0.2l0.6-0.2l0.2-0.1l0.1,0l0.1,0l0.1,0l0.3-0.1l0.4-0.1l0.6-0.2           l0.2,0l0,0h0l1.3-0.4l0,0l0.5-0.2l1.1-0.4l0.1,0l0.3-0.1l1-0.4h0l0.2-0.1l0.1,0l1.1-0.4l0.5-0.2l0.7-0.3c0.6-0.2,1.1-0.4,1.7-0.6           l0.4-0.2l0.2-0.1l0.6-0.3l0.9-0.3l0.1-0.1l1.3-0.5l0.3-0.1l0.1-0.1l1.3-0.5l0.1,0l0.1,0l1-0.4l0.4-0.2h0l0,0h0l0.4-0.2l1.2-0.5           l0.1-0.1l1.4-0.6l0.1-0.1c1.2-0.5,2.4-1.1,3.7-1.7l0.2-0.1l0.9-0.4l0.1,0l0,0c1.3-0.6,2.5-1.2,3.8-1.9l0.9-0.5l0.7-0.3l0.6-0.3           l0.8-0.4l0.6-0.3l1-0.5l1.2-0.6l0,0l0.1-0.1l0.1-0.1l0.2-0.1c2.2-1.2,4.4-2.4,6.6-3.7l0,0l0.3-0.2c1.4-0.8,2.9-1.7,4.3-2.6           l0.3-0.1l0.1-0.1l0,0l0.3-0.2c0.8-0.4,1.5-0.9,2.3-1.4l0.6-0.4l0.1,0l0.5-0.3l0.2-0.1c1.5-0.9,3-1.9,4.4-2.9l0.1,0l0.3-0.2           l1.1-0.7l0.1,0h0c2.3-1.5,4.5-3.1,6.8-4.7l0.1,0v0c1.2-0.8,2.4-1.7,3.6-2.5l0.1-0.1l0.1-0.1c1-0.8,2.1-1.5,3.1-2.3l0.1,0l0.2-0.1           c3.3-2.4,6.5-4.9,9.7-7.5l0,0h0c6.7-5.3,13.3-11,19.8-16.9l0.2-0.2l0,0c47-43.4,86.1-103.1,86.1-164.6           C424.7,79.1,371.7,14.1,291.5,14.1" fill="#00453D" style="--darkreader-inline-fill: #d2cec8;" data-darkreader-inline-fill=""/>         <path d="m1818.6,33.8h-94.8l-109.2,257.7L1510.1,33.8h-104.9v1.9c36.9,16.3,39.8,33.5,35.9,89.6l-9.6,131.2           c-5.3,74.7-9.6,92.9-46.5,105.8v1.9H1489v-1.9c-41.2-12.9-40.2-36.9-35.4-106.3l11-176.3l114.5,284.5h25.4L1722.8,86l12,189.7           c3.8,57.5,4.3,73.8-34,86.7v1.9h135.1v-1.9c-33.1-12.5-36.4-23-41.2-90.5l-11-164.8c-3.4-41.2,0.5-56.1,35-71.4V33.8z M670.9,33.8           h-159v1.9c32.1,11,38.3,23,38.3,63.2v199.3c0,40.2-6.2,53.2-38.3,64.2v1.9h154.2c110.2,0,187.3-63.2,187.3-173.4           C853.4,86,770.1,33.8,670.9,33.8 M611.1,349.4V48.6h57.5c66.6,0,118.8,59.9,118.8,146.1c0,90.1-44.5,154.7-124.5,154.7H611.1z            M1957.9,114.3c-68,0-126,52.2-126,127.4c0,72.3,55.6,128.4,126,128.4c69.9,0,126-56,126-128.4           C2083.9,166.5,2025.5,114.3,1957.9,114.3 M1957.9,358.1c-46.9,0-62.7-58.9-62.7-116.4c0-63.7,20.6-115.4,62.7-115.4           c41.7,0,62.3,51.7,62.3,115.4C2020.2,299.2,2004.4,358.1,1957.9,358.1 M1286.9,114.3c-65.6,0-122.1,49.3-122.1,129.3           c0,78.6,47.4,126.5,110.2,126.5c51.3,0,80.5-35.4,92.5-56.5v-4.3c-12.9,10-35.4,22-61.3,22c-46,0-83.3-36.9-83.3-103           c0-58,33-98.7,82.9-98.7c9.6,0,18.7,1,28.7,3.3C1326.2,122.9,1310.8,114.3,1286.9,114.3 M1009.1,114.3c-68,0-126,52.2-126,127.4           c0,72.3,55.6,128.4,126,128.4c69.9,0,126-56,126-128.4C1135.1,166.5,1076.6,114.3,1009.1,114.3 M1009.1,358.1           c-46.9,0-62.7-58.9-62.7-116.4c0-63.7,20.6-115.4,62.7-115.4c41.7,0,62.3,51.7,62.3,115.4C1071.4,299.2,1055.5,358.1,1009.1,358.1            M1336.2,143c-18.2,0-32.6,14.4-32.6,32.1c0,18.2,14.4,32.6,32.6,32.6c18.2,0,32.6-14.4,32.6-32.6           C1368.8,157.4,1354.4,143,1336.2,143" fill="#00453D" style="--darkreader-inline-fill: #d2cec8;" data-darkreader-inline-fill=""/>         <path d="m2240.5,114.3c-19.2,0-33,14.8-33,33.5c0,19.2,13.9,33.5,33,33.5c18.7,0,33.5-14.4,33.5-33.5           C2274.1,129.1,2259.2,114.3,2240.5,114.3 M2186.4,114.3h-1.9c-25.4,8.6-59.4,19.2-92.4,21.6v1.9c31.6,11,36.4,20.1,36.4,62.3v102           c0,38.3-4.8,49.8-31.1,60.4v1.9h127.4v-1.9c-32.6-10.5-38.3-22-38.3-60.4V114.3z" fill="#00453D" style="--darkreader-inline-fill: #d2cec8;" data-darkreader-inline-fill=""/>         <path d="m2732.3,114.3c-46,0-86.7,29.2-86.7,72.8c0,84.8,126,72.3,126,130.3c0,23.5-20.6,39.8-45,39.8           c-28.3,0-56-25.9-80.5-73.8h-1.9l1.4,70.4c21.1,10.1,48.9,16.3,76.2,16.3c52.2,0,93.4-30.7,93.4-76.2           c0-86.2-129.3-76.2-129.3-131.2c0-21.1,18.7-35.9,40.2-35.9c24,0,46.5,20.6,69.5,62.3h2.4v-61.8           C2778.3,119.5,2753.4,114.3,2732.3,114.3" fill="#00453D" style="--darkreader-inline-fill: #d2cec8;" data-darkreader-inline-fill=""/>         <path d="m2440.5,114.3c-19.2,0-33,14.8-33,33.5c0,19.2,13.9,33.5,33,33.5c18.7,0,33.5-14.4,33.5-33.5           C2474,129.1,2459.1,114.3,2440.5,114.3 M2386.3,114.3h-1.9c-25.4,8.6-59.4,19.2-92.4,21.6v1.9c31.6,11,36.4,20.1,36.4,62.3v102           c0,38.3-4.8,49.8-31.1,60.4v1.9h127.4v-1.9c-32.6-10.5-38.3-22-38.3-60.4V114.3z" fill="#00453D" style="--darkreader-inline-fill: #d2cec8;" data-darkreader-inline-fill=""/>         <path d="m2555,18c-19.2,0-33.5,14.9-33.5,33.5c0,19.2,14.4,33.5,33.5,33.5c18.7,0,33.5-14.4,33.5-33.5           C2588.5,32.8,2573.7,18,2555,18 M2586.6,114.3h-1.9c-24.9,8.1-59.4,17.2-92.4,20.1v1.9c30.2,10.5,36.4,18.7,36.4,60.8V303           c0,37.4-4.8,48.9-31.1,59.4v1.9h120.2v-1.9c-25.9-10.5-31.1-22-31.1-59.4V114.3z" fill="#00453D" style="--darkreader-inline-fill: #d2cec8;" data-darkreader-inline-fill=""/>       </svg>